
<svg xmlns="http://www.w3.org/2000/svg" viewBox="0 0 512 512" width="512" height="512">
  <rect width="512" height="512" fill="transparent" />
  <circle cx="256" cy="256" r="240" fill="#c62828" />
  
  <g fill="white">
    <path d="M215 305.75L215 271.25L374 271.25L374 305.75L215 305.75ZM220 191.75L220 157.25L365.50 157.25L365.50 191.75L220 191.75ZM276.75 383.50L276.75 165.25L313.50 165.25L313.50 383.50L276.75 383.50ZM335 199L335 199L369.50 206Q366.50 216.50 363.38 227Q360.25 237.50 357.25 246.88Q354.25 256.25 351.25 263.50L351.25 263.50L323 256.50Q325.50 248.50 327.88 238.50Q330.25 228.50 332.13 218.13Q334 207.75 335 199ZM222.75 206L222.75 206L253.25 198.75Q256.25 207.50 258.75 217.63Q261.25 227.75 263.13 237.25Q265 246.75 265.75 254.50L265.75 254.50L233.50 262.50Q233 254.75 231.38 245Q229.75 235.25 227.50 225Q225.25 214.75 222.75 206ZM146.25 170.75L146.25 170.75L169 148.75Q175.50 154.25 183.25 161.13Q191 168 198.13 174.88Q205.25 181.75 209.50 187.25L209.50 187.25L185.25 212.25Q181.50 206.50 174.75 199.25Q168 192 160.38 184.50Q152.75 177 146.25 170.75ZM167.25 381.50L167.25 381.50L158.50 349.25L164.25 339L211.25 298Q213.25 305.25 217.13 314.50Q221 323.75 224.25 329L224.25 329Q208 343.50 197.63 352.63Q187.25 361.75 181.13 367.25Q175 372.75 172 375.88Q169 379 167.25 381.50ZM137.50 257.25L137.50 222.50L182 222.50L182 257.25L137.50 257.25ZM167.25 381.50L167.25 381.50Q166 377.25 163.38 371.50Q160.75 365.75 157.50 360.25Q154.25 354.75 151.50 351.50L151.50 351.50Q155.75 348.50 159.63 342.50Q163.50 336.50 163.50 328L163.50 328L163.50 222.50L197.25 222.50L197.25 351.25Q197.25 351.25 192.75 354.25Q188.25 357.25 182.25 361.88Q176.25 366.50 171.75 371.75Q167.25 377 167.25 381.50Z" />
  </g>
  
  <!-- 5 small 4-pointed stars (sparkles) -->
  <g fill="white">
    <!-- Top -->
    <path d="M 230 60 Q 230 90 200 90 Q 230 90 230 120 Q 230 90 260 90 Q 230 90 230 60 Z" />
    <!-- Left -->
    <path d="M 100 280 Q 100 300 80 300 Q 100 300 100 320 Q 100 300 120 300 Q 100 300 100 280 Z" />
    <!-- Bottom -->
    <path d="M 220 420 Q 220 440 200 440 Q 220 440 220 460 Q 220 440 240 440 Q 220 440 220 420 Z" />
    <!-- Bottom Right -->
    <path d="M 390 380 Q 390 395 375 395 Q 390 395 390 410 Q 390 395 405 395 Q 390 395 390 380 Z" />
    <!-- Right -->
    <path d="M 440 220 Q 440 240 420 240 Q 440 240 440 260 Q 440 240 460 240 Q 440 240 440 220 Z" />
  </g>
</svg>
  